<?xml version="1.0" encoding="utf-8"?>
<!-- Svg Vector Icons : http://www.onlinewebfonts.com/icon -->
<!DOCTYPE svg PUBLIC "-//W3C//DTD SVG 1.1//EN" "http://www.w3.org/Graphics/SVG/1.1/DTD/svg11.dtd">
<svg version="1.1" xmlns="http://www.w3.org/2000/svg" xmlns:xlink="http://www.w3.org/1999/xlink" x="0px" y="0px" viewBox="0 0 1000 1000" enable-background="new 0 0 1000 1000" xml:space="preserve">
<metadata> Svg Vector Icons : http://www.onlinewebfonts.com/icon </metadata>
<g><g transform="translate(0.000000,250.000000) scale(0.100000,-0.100000)"><path d="M4565.3,2336.9c-54.6-7.8-229.9-35.1-389.7-58.5c-939.2-136.4-1940.8-650.8-2650.1-1364c-1859-1858.9-1905.7-4820.8-105.2-6722.6c744.4-787.2,1683.6-1293.9,2743.6-1477c717.1-124.7,1710.9-54.5,2389,175.4c2572.1,861.3,3947.8,3601,3094.3,6149.7C9008,957.3,7203.7,2282.3,5149.9,2340.8C4880.9,2348.6,4619.8,2348.6,4565.3,2336.9z M5753.9,1651C6599.6,1510.7,7558.3,988.5,8135.1,361C9117.1-714.6,9487.4-2172.1,9125-3582.9c-101.3-393.6-440.4-1091.2-693.7-1422.5C7819.4-5808.1,7028.3-6334.2,6015-6611c-253.3-70.1-413.1-81.8-1001.6-81.8c-639.1-3.9-736.6,7.8-1083.4,101.3c-432.6,116.9-993.8,370.2-1356.2,611.9c-323.5,218.3-908,806.7-1118.5,1130.2c-448.2,682-662.5,1336.7-697.6,2127.9c-27.3,604,23.4,1024.9,183.2,1504.3C1615.1,813.1,3626,2009.5,5753.9,1651z"/><path d="M3025.9-180.7c-35.1-97.4-1188.6-4325.8-1188.6-4360.9c0-19.5,206.5-35.1,459.9-35.1H2757l136.4,557.3l136.4,553.4l569,11.7l565.1,11.7l124.7-444.3c66.3-241.6,132.5-494.9,144.2-565.1l27.3-124.7h502.7c401.4,0,502.7,11.7,487.2,50.7c-11.7,27.3-276.7,970.4-592.4,2092.8c-311.8,1126.3-588.5,2104.5-608,2174.6l-42.9,124.7H3626C3193.5-133.9,3037.6-145.6,3025.9-180.7z M3665-1232.9c27.3-136.4,116.9-502.7,202.7-814.5c81.8-315.7,152-584.6,152-596.2c0-11.7-183.2-23.4-409.2-23.4c-226,0-409.2,15.6-409.2,35.1c0,19.5,70.1,319.6,155.9,670.3c81.8,350.7,163.7,713.2,179.3,806.7c15.6,89.6,39,163.7,50.7,163.7C3602.7-991.3,3637.7-1100.4,3665-1232.9z"/><path d="M5929.3-2686.5v-1890.1h1091.2h1091.2v350.8v350.7h-701.5h-701.5v448.2v448.2h623.5h623.5v350.8v350.7h-623.5h-623.5v389.7v389.7h662.5h662.5v350.7v350.7H6981.5H5929.3V-2686.5z"/></g></g>
</svg>